<mxfile host="app.diagrams.net" agent="Mozilla/5.0 (Windows NT 10.0; Win64; x64) AppleWebKit/537.36 (KHTML, like Gecko) Chrome/136.0.0.0 Safari/537.36" version="27.0.9">
  <diagram name="Page-1" id="41iHGqpK2zS3WSGNhh4o">
    <mxGraphModel dx="1042" dy="1796" grid="1" gridSize="10" guides="1" tooltips="1" connect="1" arrows="1" fold="1" page="1" pageScale="1" pageWidth="850" pageHeight="1100" math="0" shadow="0">
      <root>
        <mxCell id="0" />
        <mxCell id="1" parent="0" />
        <mxCell id="NRgopqU9Ku2PyxndO9YP-1" value="&lt;p style=&quot;margin:0px;margin-top:4px;text-align:center;&quot;&gt;&lt;b&gt;Account&lt;/b&gt;&lt;/p&gt;&lt;hr size=&quot;1&quot; style=&quot;border-style:solid;&quot;&gt;&lt;p style=&quot;margin:0px;margin-left:4px;&quot;&gt;- Name: String&lt;/p&gt;&lt;p style=&quot;margin:0px;margin-left:4px;&quot;&gt;- phone no - int&lt;/p&gt;&lt;p style=&quot;margin:0px;margin-left:4px;&quot;&gt;- account number - int&lt;/p&gt;&lt;p style=&quot;margin:0px;margin-left:4px;&quot;&gt;- card number - int&lt;/p&gt;&lt;p style=&quot;margin:0px;margin-left:4px;&quot;&gt;- pin - long int&lt;/p&gt;&lt;p style=&quot;margin:0px;margin-left:4px;&quot;&gt;- initial balance - int&lt;/p&gt;&lt;hr size=&quot;1&quot; style=&quot;border-style:solid;&quot;&gt;&lt;p style=&quot;margin:0px;margin-left:4px;&quot;&gt;- CreateAccout()&lt;/p&gt;" style="verticalAlign=top;align=left;overflow=fill;html=1;whiteSpace=wrap;" vertex="1" parent="1">
          <mxGeometry x="660" y="-20" width="160" height="150" as="geometry" />
        </mxCell>
        <mxCell id="NRgopqU9Ku2PyxndO9YP-7" value="&lt;p style=&quot;margin:0px;margin-top:4px;text-align:center;&quot;&gt;&lt;b&gt;UpdateBalance&lt;/b&gt;&lt;/p&gt;&lt;hr size=&quot;1&quot; style=&quot;border-style:solid;&quot;&gt;&lt;p style=&quot;margin:0px;margin-left:4px;&quot;&gt;&lt;span style=&quot;background-color: transparent; color: light-dark(rgb(0, 0, 0), rgb(255, 255, 255));&quot;&gt;- account number - int&lt;/span&gt;&lt;/p&gt;&lt;p style=&quot;margin:0px;margin-left:4px;&quot;&gt;- initial balance - int&lt;/p&gt;&lt;hr size=&quot;1&quot; style=&quot;border-style:solid;&quot;&gt;&lt;p style=&quot;margin:0px;margin-left:4px;&quot;&gt;- Credit()&lt;/p&gt;&lt;p style=&quot;margin:0px;margin-left:4px;&quot;&gt;- Debit()&lt;/p&gt;&lt;p style=&quot;margin:0px;margin-left:4px;&quot;&gt;- CheckBalance():int&lt;/p&gt;" style="verticalAlign=top;align=left;overflow=fill;html=1;whiteSpace=wrap;" vertex="1" parent="1">
          <mxGeometry x="740" y="250" width="160" height="130" as="geometry" />
        </mxCell>
        <mxCell id="NRgopqU9Ku2PyxndO9YP-8" value="Pin verification" style="swimlane;fontStyle=1;align=center;verticalAlign=top;childLayout=stackLayout;horizontal=1;startSize=26;horizontalStack=0;resizeParent=1;resizeParentMax=0;resizeLast=0;collapsible=1;marginBottom=0;whiteSpace=wrap;html=1;" vertex="1" parent="1">
          <mxGeometry x="30" y="220" width="160" height="122" as="geometry" />
        </mxCell>
        <mxCell id="NRgopqU9Ku2PyxndO9YP-9" value="- card number&lt;div&gt;- pin&lt;/div&gt;" style="text;strokeColor=none;fillColor=none;align=left;verticalAlign=top;spacingLeft=4;spacingRight=4;overflow=hidden;rotatable=0;points=[[0,0.5],[1,0.5]];portConstraint=eastwest;whiteSpace=wrap;html=1;" vertex="1" parent="NRgopqU9Ku2PyxndO9YP-8">
          <mxGeometry y="26" width="160" height="54" as="geometry" />
        </mxCell>
        <mxCell id="NRgopqU9Ku2PyxndO9YP-10" value="" style="line;strokeWidth=1;fillColor=none;align=left;verticalAlign=middle;spacingTop=-1;spacingLeft=3;spacingRight=3;rotatable=0;labelPosition=right;points=[];portConstraint=eastwest;strokeColor=inherit;" vertex="1" parent="NRgopqU9Ku2PyxndO9YP-8">
          <mxGeometry y="80" width="160" height="8" as="geometry" />
        </mxCell>
        <mxCell id="NRgopqU9Ku2PyxndO9YP-11" value="+ verifyPin:bool" style="text;strokeColor=none;fillColor=none;align=left;verticalAlign=top;spacingLeft=4;spacingRight=4;overflow=hidden;rotatable=0;points=[[0,0.5],[1,0.5]];portConstraint=eastwest;whiteSpace=wrap;html=1;" vertex="1" parent="NRgopqU9Ku2PyxndO9YP-8">
          <mxGeometry y="88" width="160" height="34" as="geometry" />
        </mxCell>
        <mxCell id="NRgopqU9Ku2PyxndO9YP-12" value="Withdrawal" style="swimlane;fontStyle=1;align=center;verticalAlign=top;childLayout=stackLayout;horizontal=1;startSize=26;horizontalStack=0;resizeParent=1;resizeParentMax=0;resizeLast=0;collapsible=1;marginBottom=0;whiteSpace=wrap;html=1;" vertex="1" parent="1">
          <mxGeometry x="470" y="175" width="160" height="104" as="geometry" />
        </mxCell>
        <mxCell id="NRgopqU9Ku2PyxndO9YP-13" value="+ state:&amp;nbsp;&lt;div&gt;+ amount:int&lt;/div&gt;" style="text;strokeColor=none;fillColor=none;align=left;verticalAlign=top;spacingLeft=4;spacingRight=4;overflow=hidden;rotatable=0;points=[[0,0.5],[1,0.5]];portConstraint=eastwest;whiteSpace=wrap;html=1;" vertex="1" parent="NRgopqU9Ku2PyxndO9YP-12">
          <mxGeometry y="26" width="160" height="44" as="geometry" />
        </mxCell>
        <mxCell id="NRgopqU9Ku2PyxndO9YP-14" value="" style="line;strokeWidth=1;fillColor=none;align=left;verticalAlign=middle;spacingTop=-1;spacingLeft=3;spacingRight=3;rotatable=0;labelPosition=right;points=[];portConstraint=eastwest;strokeColor=inherit;" vertex="1" parent="NRgopqU9Ku2PyxndO9YP-12">
          <mxGeometry y="70" width="160" height="8" as="geometry" />
        </mxCell>
        <mxCell id="NRgopqU9Ku2PyxndO9YP-15" value="+ UpdateBalance" style="text;strokeColor=none;fillColor=none;align=left;verticalAlign=top;spacingLeft=4;spacingRight=4;overflow=hidden;rotatable=0;points=[[0,0.5],[1,0.5]];portConstraint=eastwest;whiteSpace=wrap;html=1;" vertex="1" parent="NRgopqU9Ku2PyxndO9YP-12">
          <mxGeometry y="78" width="160" height="26" as="geometry" />
        </mxCell>
        <mxCell id="NRgopqU9Ku2PyxndO9YP-16" value="checkBalance" style="swimlane;fontStyle=1;align=center;verticalAlign=top;childLayout=stackLayout;horizontal=1;startSize=26;horizontalStack=0;resizeParent=1;resizeParentMax=0;resizeLast=0;collapsible=1;marginBottom=0;whiteSpace=wrap;html=1;" vertex="1" parent="1">
          <mxGeometry x="470" y="451" width="160" height="104" as="geometry" />
        </mxCell>
        <mxCell id="NRgopqU9Ku2PyxndO9YP-17" value="+ state:&amp;nbsp;" style="text;strokeColor=none;fillColor=none;align=left;verticalAlign=top;spacingLeft=4;spacingRight=4;overflow=hidden;rotatable=0;points=[[0,0.5],[1,0.5]];portConstraint=eastwest;whiteSpace=wrap;html=1;" vertex="1" parent="NRgopqU9Ku2PyxndO9YP-16">
          <mxGeometry y="26" width="160" height="44" as="geometry" />
        </mxCell>
        <mxCell id="NRgopqU9Ku2PyxndO9YP-18" value="" style="line;strokeWidth=1;fillColor=none;align=left;verticalAlign=middle;spacingTop=-1;spacingLeft=3;spacingRight=3;rotatable=0;labelPosition=right;points=[];portConstraint=eastwest;strokeColor=inherit;" vertex="1" parent="NRgopqU9Ku2PyxndO9YP-16">
          <mxGeometry y="70" width="160" height="8" as="geometry" />
        </mxCell>
        <mxCell id="NRgopqU9Ku2PyxndO9YP-19" value="+ UpdateBalance" style="text;strokeColor=none;fillColor=none;align=left;verticalAlign=top;spacingLeft=4;spacingRight=4;overflow=hidden;rotatable=0;points=[[0,0.5],[1,0.5]];portConstraint=eastwest;whiteSpace=wrap;html=1;" vertex="1" parent="NRgopqU9Ku2PyxndO9YP-16">
          <mxGeometry y="78" width="160" height="26" as="geometry" />
        </mxCell>
        <mxCell id="NRgopqU9Ku2PyxndO9YP-20" value="Deposit" style="swimlane;fontStyle=1;align=center;verticalAlign=top;childLayout=stackLayout;horizontal=1;startSize=26;horizontalStack=0;resizeParent=1;resizeParentMax=0;resizeLast=0;collapsible=1;marginBottom=0;whiteSpace=wrap;html=1;" vertex="1" parent="1">
          <mxGeometry x="470" y="317" width="160" height="104" as="geometry" />
        </mxCell>
        <mxCell id="NRgopqU9Ku2PyxndO9YP-21" value="+ state:&amp;nbsp;&lt;div&gt;+ amount:int&lt;/div&gt;" style="text;strokeColor=none;fillColor=none;align=left;verticalAlign=top;spacingLeft=4;spacingRight=4;overflow=hidden;rotatable=0;points=[[0,0.5],[1,0.5]];portConstraint=eastwest;whiteSpace=wrap;html=1;" vertex="1" parent="NRgopqU9Ku2PyxndO9YP-20">
          <mxGeometry y="26" width="160" height="44" as="geometry" />
        </mxCell>
        <mxCell id="NRgopqU9Ku2PyxndO9YP-22" value="" style="line;strokeWidth=1;fillColor=none;align=left;verticalAlign=middle;spacingTop=-1;spacingLeft=3;spacingRight=3;rotatable=0;labelPosition=right;points=[];portConstraint=eastwest;strokeColor=inherit;" vertex="1" parent="NRgopqU9Ku2PyxndO9YP-20">
          <mxGeometry y="70" width="160" height="8" as="geometry" />
        </mxCell>
        <mxCell id="NRgopqU9Ku2PyxndO9YP-23" value="+ UpdateBalance" style="text;strokeColor=none;fillColor=none;align=left;verticalAlign=top;spacingLeft=4;spacingRight=4;overflow=hidden;rotatable=0;points=[[0,0.5],[1,0.5]];portConstraint=eastwest;whiteSpace=wrap;html=1;" vertex="1" parent="NRgopqU9Ku2PyxndO9YP-20">
          <mxGeometry y="78" width="160" height="26" as="geometry" />
        </mxCell>
        <mxCell id="NRgopqU9Ku2PyxndO9YP-25" value="sendNotification" style="swimlane;fontStyle=1;align=center;verticalAlign=top;childLayout=stackLayout;horizontal=1;startSize=26;horizontalStack=0;resizeParent=1;resizeParentMax=0;resizeLast=0;collapsible=1;marginBottom=0;whiteSpace=wrap;html=1;" vertex="1" parent="1">
          <mxGeometry x="30" y="380" width="160" height="120" as="geometry" />
        </mxCell>
        <mxCell id="NRgopqU9Ku2PyxndO9YP-26" value="+ state:&amp;nbsp;" style="text;strokeColor=none;fillColor=none;align=left;verticalAlign=top;spacingLeft=4;spacingRight=4;overflow=hidden;rotatable=0;points=[[0,0.5],[1,0.5]];portConstraint=eastwest;whiteSpace=wrap;html=1;" vertex="1" parent="NRgopqU9Ku2PyxndO9YP-25">
          <mxGeometry y="26" width="160" height="34" as="geometry" />
        </mxCell>
        <mxCell id="NRgopqU9Ku2PyxndO9YP-27" value="" style="line;strokeWidth=1;fillColor=none;align=left;verticalAlign=middle;spacingTop=-1;spacingLeft=3;spacingRight=3;rotatable=0;labelPosition=right;points=[];portConstraint=eastwest;strokeColor=inherit;" vertex="1" parent="NRgopqU9Ku2PyxndO9YP-25">
          <mxGeometry y="60" width="160" height="8" as="geometry" />
        </mxCell>
        <mxCell id="NRgopqU9Ku2PyxndO9YP-28" value="+ notifySms&lt;div&gt;+ notifyEmail&lt;/div&gt;&lt;div&gt;+ endsession&lt;/div&gt;" style="text;strokeColor=none;fillColor=none;align=left;verticalAlign=top;spacingLeft=4;spacingRight=4;overflow=hidden;rotatable=0;points=[[0,0.5],[1,0.5]];portConstraint=eastwest;whiteSpace=wrap;html=1;" vertex="1" parent="NRgopqU9Ku2PyxndO9YP-25">
          <mxGeometry y="68" width="160" height="52" as="geometry" />
        </mxCell>
        <mxCell id="NRgopqU9Ku2PyxndO9YP-29" value="Actor" style="shape=umlActor;verticalLabelPosition=bottom;verticalAlign=top;html=1;" vertex="1" parent="1">
          <mxGeometry x="70" y="40" width="30" height="60" as="geometry" />
        </mxCell>
        <mxCell id="NRgopqU9Ku2PyxndO9YP-35" value="ATM" style="swimlane;fontStyle=1;align=center;verticalAlign=top;childLayout=stackLayout;horizontal=1;startSize=26;horizontalStack=0;resizeParent=1;resizeParentMax=0;resizeLast=0;collapsible=1;marginBottom=0;whiteSpace=wrap;html=1;" vertex="1" parent="1">
          <mxGeometry x="245" y="-30" width="180" height="170" as="geometry" />
        </mxCell>
        <mxCell id="NRgopqU9Ku2PyxndO9YP-36" value="+ cardNumber-int&lt;div&gt;+ accountTypr: str&lt;/div&gt;&lt;div&gt;+ transactionType:str&lt;/div&gt;&lt;div&gt;+ amount: int&lt;/div&gt;&lt;div&gt;+ pin: int&lt;/div&gt;" style="text;strokeColor=none;fillColor=none;align=left;verticalAlign=top;spacingLeft=4;spacingRight=4;overflow=hidden;rotatable=0;points=[[0,0.5],[1,0.5]];portConstraint=eastwest;whiteSpace=wrap;html=1;" vertex="1" parent="NRgopqU9Ku2PyxndO9YP-35">
          <mxGeometry y="26" width="180" height="84" as="geometry" />
        </mxCell>
        <mxCell id="NRgopqU9Ku2PyxndO9YP-37" value="" style="line;strokeWidth=1;fillColor=none;align=left;verticalAlign=middle;spacingTop=-1;spacingLeft=3;spacingRight=3;rotatable=0;labelPosition=right;points=[];portConstraint=eastwest;strokeColor=inherit;" vertex="1" parent="NRgopqU9Ku2PyxndO9YP-35">
          <mxGeometry y="110" width="180" height="8" as="geometry" />
        </mxCell>
        <mxCell id="NRgopqU9Ku2PyxndO9YP-38" value="+ startSession()&lt;div&gt;+ endSession()&lt;/div&gt;" style="text;strokeColor=none;fillColor=none;align=left;verticalAlign=top;spacingLeft=4;spacingRight=4;overflow=hidden;rotatable=0;points=[[0,0.5],[1,0.5]];portConstraint=eastwest;whiteSpace=wrap;html=1;" vertex="1" parent="NRgopqU9Ku2PyxndO9YP-35">
          <mxGeometry y="118" width="180" height="52" as="geometry" />
        </mxCell>
        <mxCell id="NRgopqU9Ku2PyxndO9YP-40" value="1" style="endArrow=open;html=1;endSize=12;startArrow=diamondThin;startSize=14;startFill=0;edgeStyle=orthogonalEdgeStyle;align=left;verticalAlign=bottom;rounded=0;" edge="1" parent="1">
          <mxGeometry x="-1" y="3" relative="1" as="geometry">
            <mxPoint x="120" y="70" as="sourcePoint" />
            <mxPoint x="245" y="69.5" as="targetPoint" />
          </mxGeometry>
        </mxCell>
        <mxCell id="NRgopqU9Ku2PyxndO9YP-54" value="1" style="endArrow=open;html=1;endSize=12;startArrow=diamondThin;startSize=14;startFill=1;edgeStyle=orthogonalEdgeStyle;align=left;verticalAlign=bottom;rounded=0;exitX=0;exitY=0.5;exitDx=0;exitDy=0;entryX=1;entryY=0.5;entryDx=0;entryDy=0;" edge="1" parent="1" source="NRgopqU9Ku2PyxndO9YP-7" target="NRgopqU9Ku2PyxndO9YP-13">
          <mxGeometry x="-1" y="3" relative="1" as="geometry">
            <mxPoint x="350" y="350" as="sourcePoint" />
            <mxPoint x="710" y="231" as="targetPoint" />
            <Array as="points">
              <mxPoint x="660" y="223" />
            </Array>
          </mxGeometry>
        </mxCell>
        <mxCell id="NRgopqU9Ku2PyxndO9YP-55" value="" style="endArrow=open;html=1;endSize=12;startArrow=diamondThin;startSize=14;startFill=1;edgeStyle=orthogonalEdgeStyle;align=left;verticalAlign=bottom;rounded=0;exitX=0;exitY=0.75;exitDx=0;exitDy=0;entryX=1;entryY=0.5;entryDx=0;entryDy=0;" edge="1" parent="1" source="NRgopqU9Ku2PyxndO9YP-7" target="NRgopqU9Ku2PyxndO9YP-21">
          <mxGeometry x="-1" y="41" relative="1" as="geometry">
            <mxPoint x="780" y="513" as="sourcePoint" />
            <mxPoint x="670" y="421" as="targetPoint" />
            <Array as="points">
              <mxPoint x="710" y="348" />
              <mxPoint x="710" y="365" />
            </Array>
            <mxPoint x="1" y="7" as="offset" />
          </mxGeometry>
        </mxCell>
        <mxCell id="NRgopqU9Ku2PyxndO9YP-56" value="" style="endArrow=open;html=1;endSize=12;startArrow=diamondThin;startSize=14;startFill=1;edgeStyle=orthogonalEdgeStyle;align=left;verticalAlign=bottom;rounded=0;exitX=0.5;exitY=1;exitDx=0;exitDy=0;entryX=1.02;entryY=0.855;entryDx=0;entryDy=0;entryPerimeter=0;" edge="1" parent="1" source="NRgopqU9Ku2PyxndO9YP-7" target="NRgopqU9Ku2PyxndO9YP-17">
          <mxGeometry x="-1" y="3" relative="1" as="geometry">
            <mxPoint x="780" y="532" as="sourcePoint" />
            <mxPoint x="670" y="440" as="targetPoint" />
            <Array as="points">
              <mxPoint x="810" y="380" />
              <mxPoint x="810" y="515" />
            </Array>
          </mxGeometry>
        </mxCell>
        <mxCell id="NRgopqU9Ku2PyxndO9YP-57" value="1" style="endArrow=open;html=1;endSize=12;startArrow=diamondThin;startSize=14;startFill=0;edgeStyle=orthogonalEdgeStyle;align=left;verticalAlign=bottom;rounded=0;entryX=1;entryY=0.5;entryDx=0;entryDy=0;" edge="1" parent="1" source="NRgopqU9Ku2PyxndO9YP-1" target="NRgopqU9Ku2PyxndO9YP-36">
          <mxGeometry x="-1" y="3" relative="1" as="geometry">
            <mxPoint x="460" y="60" as="sourcePoint" />
            <mxPoint x="620" y="60" as="targetPoint" />
          </mxGeometry>
        </mxCell>
        <mxCell id="NRgopqU9Ku2PyxndO9YP-60" value="1" style="endArrow=open;html=1;endSize=12;startArrow=diamondThin;startSize=14;startFill=1;edgeStyle=orthogonalEdgeStyle;align=left;verticalAlign=bottom;rounded=0;exitX=-0.008;exitY=0.358;exitDx=0;exitDy=0;exitPerimeter=0;entryX=0.5;entryY=0;entryDx=0;entryDy=0;" edge="1" parent="1" source="NRgopqU9Ku2PyxndO9YP-38" target="NRgopqU9Ku2PyxndO9YP-8">
          <mxGeometry x="-1" y="3" relative="1" as="geometry">
            <mxPoint x="350" y="290" as="sourcePoint" />
            <mxPoint x="510" y="290" as="targetPoint" />
          </mxGeometry>
        </mxCell>
        <mxCell id="NRgopqU9Ku2PyxndO9YP-62" value="1" style="endArrow=open;html=1;endSize=12;startArrow=diamondThin;startSize=14;startFill=1;edgeStyle=orthogonalEdgeStyle;align=left;verticalAlign=bottom;rounded=0;exitX=0.13;exitY=0.958;exitDx=0;exitDy=0;exitPerimeter=0;entryX=1;entryY=0.5;entryDx=0;entryDy=0;" edge="1" parent="1" source="NRgopqU9Ku2PyxndO9YP-38" target="NRgopqU9Ku2PyxndO9YP-26">
          <mxGeometry x="-1" y="3" relative="1" as="geometry">
            <mxPoint x="350" y="290" as="sourcePoint" />
            <mxPoint x="230" y="440" as="targetPoint" />
            <Array as="points">
              <mxPoint x="268" y="210" />
              <mxPoint x="231" y="210" />
              <mxPoint x="231" y="423" />
            </Array>
          </mxGeometry>
        </mxCell>
        <mxCell id="NRgopqU9Ku2PyxndO9YP-63" value="1" style="endArrow=open;html=1;endSize=12;startArrow=diamondThin;startSize=14;startFill=1;edgeStyle=orthogonalEdgeStyle;align=left;verticalAlign=bottom;rounded=0;exitX=0.446;exitY=0.988;exitDx=0;exitDy=0;exitPerimeter=0;entryX=0.02;entryY=0.945;entryDx=0;entryDy=0;entryPerimeter=0;" edge="1" parent="1" source="NRgopqU9Ku2PyxndO9YP-38" target="NRgopqU9Ku2PyxndO9YP-13">
          <mxGeometry x="-1" y="3" relative="1" as="geometry">
            <mxPoint x="350" y="290" as="sourcePoint" />
            <mxPoint x="510" y="290" as="targetPoint" />
          </mxGeometry>
        </mxCell>
        <mxCell id="NRgopqU9Ku2PyxndO9YP-64" value="1" style="endArrow=open;html=1;endSize=12;startArrow=diamondThin;startSize=14;startFill=1;edgeStyle=orthogonalEdgeStyle;align=left;verticalAlign=bottom;rounded=0;entryX=0;entryY=0.5;entryDx=0;entryDy=0;exitX=1;exitY=0.5;exitDx=0;exitDy=0;" edge="1" parent="1" source="NRgopqU9Ku2PyxndO9YP-38" target="NRgopqU9Ku2PyxndO9YP-17">
          <mxGeometry x="-1" y="3" relative="1" as="geometry">
            <mxPoint x="330" y="150" as="sourcePoint" />
            <mxPoint x="498" y="464" as="targetPoint" />
          </mxGeometry>
        </mxCell>
        <mxCell id="NRgopqU9Ku2PyxndO9YP-65" value="1" style="endArrow=open;html=1;endSize=12;startArrow=diamondThin;startSize=14;startFill=1;edgeStyle=orthogonalEdgeStyle;align=left;verticalAlign=bottom;rounded=0;exitX=0.708;exitY=1.004;exitDx=0;exitDy=0;exitPerimeter=0;entryX=0;entryY=0.664;entryDx=0;entryDy=0;entryPerimeter=0;" edge="1" parent="1" source="NRgopqU9Ku2PyxndO9YP-38" target="NRgopqU9Ku2PyxndO9YP-21">
          <mxGeometry x="-1" y="3" relative="1" as="geometry">
            <mxPoint x="320" y="370" as="sourcePoint" />
            <mxPoint x="360" y="430" as="targetPoint" />
            <Array as="points">
              <mxPoint x="372" y="372" />
            </Array>
          </mxGeometry>
        </mxCell>
      </root>
    </mxGraphModel>
  </diagram>
</mxfile>
